External Loads File
version=1
nRows=70
nColumns=13
Range=5.000000e-03-10 seconds
endheader
time 	forceRightX 	forceRightY 	forceRightZ 	pointRightX 	pointRightY 	pointRightZ 	forceLeftX 	forceLeftY 	forceLeftZ 	pointLeftX 	pointLeftY 	pointLeftZ 		
7.505000 -153.015123 420.019322 -0.000000 0.448041 0.328929 -0.125688 118.504978 28.690869 -0.000000 0.153274 0.315052 -0.361348
7.510000 -150.555275 436.245744 -0.000000 0.447820 0.317897 -0.125628 120.884356 26.275157 -0.000000 0.153950 0.325652 -0.361339
7.515000 -146.016713 453.666358 -0.000000 0.446962 0.306918 -0.125541 122.299081 22.872100 -0.000000 0.155238 0.336307 -0.361375
7.520000 -139.198370 472.114320 -0.000000 0.445635 0.295992 -0.125406 122.554432 18.517271 -0.000000 0.157061 0.346975 -0.361290
7.525000 -128.660825 491.639958 -0.000000 0.443434 0.284454 -0.125690 121.541792 12.956977 -0.000000 0.159750 0.357625 -0.361249
7.530000 -117.591240 510.958357 -0.000000 0.440952 0.273894 -0.125698 119.092057 7.100981 -0.000000 0.162941 0.368034 -0.361259
7.535000 -104.188107 530.093293 -0.000000 0.437771 0.263450 -0.125819 115.279488 0.593050 -0.000000 0.166829 0.378336 -0.361549
7.540000 -89.031131 548.393087 -0.000000 0.433989 0.253303 -0.125900 110.165414 -6.344454 -0.000000 0.171262 0.388498 -0.361324
7.545000 -72.549962 565.307869 -0.000000 0.429723 0.243370 -0.125994 103.855259 -13.553424 -0.000000 0.176331 0.398306 -0.361234
7.550000 -55.686387 580.307252 -0.000000 0.425037 0.233860 -0.125951 96.492723 -20.778365 -0.000000 0.181751 0.407785 -0.361279
7.555000 -37.864644 593.059871 -0.000000 0.419759 0.224698 -0.125799 88.190090 -27.997451 -0.000000 0.187921 0.416993 -0.361239
7.560000 -20.373936 603.067282 -0.000000 0.414081 0.215831 -0.125700 79.149423 -34.869711 -0.000000 0.194274 0.425775 -0.361030
7.565000 -2.806833 609.991833 -0.000000 0.407936 0.207491 -0.125639 69.519880 -41.336562 -0.000000 0.201337 0.434212 -0.361097
7.570000 15.275708 613.475780 -0.000000 0.401394 0.199649 -0.125621 59.414632 -47.345357 -0.000000 0.209487 0.442222 -0.362221
7.575000 31.761569 613.264573 -0.000000 0.394325 0.192200 -0.125659 49.107446 -52.648335 -0.000000 0.217110 0.449841 -0.361445
7.580000 47.317091 609.127138 -0.000000 0.386924 0.185429 -0.125592 38.639293 -57.328542 -0.000000 0.225179 0.456905 -0.361509
7.585000 62.507698 600.817814 -0.000000 0.379238 0.179094 -0.125562 28.019843 -61.417647 -0.000000 0.233826 0.463550 -0.361866
7.590000 75.834373 588.379274 -0.000000 0.371366 0.173315 -0.125503 17.485439 -64.844837 -0.000000 0.242401 0.469662 -0.361597
7.595000 87.675815 571.802890 -0.000000 0.363388 0.168227 -0.125483 7.141859 -67.649458 -0.000000 0.251310 0.475083 -0.361672
7.600000 98.660014 551.084254 -0.000000 0.355002 0.163664 -0.125487 -2.920787 -69.821660 -0.000000 0.260466 0.479962 -0.361836
7.605000 108.083661 526.514726 -0.000000 0.346384 0.159888 -0.125435 -12.465416 -71.319447 -0.000000 0.269683 0.484235 -0.362017
7.610000 114.717329 498.679136 -0.000000 0.338432 0.156616 -0.125018 -21.181298 -72.153892 -0.000000 0.278906 0.487892 -0.362080
7.615000 121.871040 467.236676 -0.000000 0.328749 0.154050 -0.125850 -29.442430 -72.122762 -0.000000 0.288040 0.490875 -0.362235
7.620000 126.946980 433.267378 -0.000000 0.319453 0.152070 -0.125849 -36.827739 -71.217610 -0.000000 0.297424 0.493323 -0.362521
7.625000 129.983132 397.369659 -0.000000 0.310107 0.150773 -0.125788 -43.321147 -69.345560 -0.000000 0.306590 0.494937 -0.362622
7.630000 131.214873 360.083519 -0.000000 0.300809 0.150102 -0.125791 -48.989380 -66.382846 -0.000000 0.315700 0.495741 -0.362874
7.635000 130.595978 322.006770 -0.000000 0.291763 0.150082 -0.125795 -53.910533 -62.242238 -0.000000 0.324801 0.496085 -0.363120
7.640000 127.936206 283.775475 -0.000000 0.283186 0.150605 -0.125847 -58.198793 -56.883899 -0.000000 0.333733 0.495829 -0.363569
7.645000 124.121695 245.547352 -0.000000 0.274321 0.151795 -0.125885 -62.255018 -50.027640 -0.000000 0.342585 0.494599 -0.363981
7.650000 118.577895 208.208513 -0.000000 0.265518 0.153598 -0.125914 -66.242849 -41.639460 -0.000000 0.350801 0.492680 -0.364001
7.655000 111.777916 172.245434 -0.000000 0.256885 0.156107 -0.125875 -70.534054 -31.407749 -0.000000 0.358777 0.490123 -0.364311
7.660000 103.888248 138.340254 -0.000000 0.248505 0.159080 -0.125869 -75.381891 -19.094555 -0.000000 0.366239 0.486601 -0.364557
7.665000 95.468647 106.879404 -0.000000 0.240232 0.162610 -0.125822 -81.020548 -4.332075 -0.000000 0.373732 0.482580 -0.364565
7.670000 86.709369 78.437522 -0.000000 0.232249 0.166773 -0.125805 -87.536166 12.939549 -0.000000 0.381062 0.477838 -0.364907
7.675000 77.880594 53.445520 -0.000000 0.224269 0.171452 -0.125964 -94.980736 32.564021 -0.000000 0.387821 0.472408 -0.365501
7.680000 69.249362 32.207047 -0.000000 0.217048 0.176609 -0.125918 -103.441960 54.074201 -0.000000 0.394402 0.466277 -0.365819
7.685000 61.117788 14.755946 -0.000000 0.210277 0.182280 -0.125517 -112.988214 76.922215 -0.000000 0.400777 0.459650 -0.366113
7.690000 53.688180 1.009924 -0.000000 0.203649 0.188456 -0.125621 -123.612572 100.470203 -0.000000 0.406687 0.452238 -0.366628
7.695000 47.115625 -9.119766 -0.000000 0.197617 0.194987 -0.125532 -135.387273 123.875181 -0.000000 0.412412 0.444238 -0.367043
7.700000 41.533282 -15.952239 -0.000000 0.191449 0.202005 -0.125854 -147.961271 146.792580 -0.000000 0.418056 0.435727 -0.367349
7.705000 37.138801 -19.612583 -0.000000 0.186848 0.209678 -0.125239 -161.768224 168.191614 -0.000000 0.423319 0.426806 -0.367716
7.710000 33.993705 -20.586196 -0.000000 0.182177 0.217410 -0.125084 -176.239683 188.258051 -0.000000 0.428255 0.417473 -0.367973
7.715000 32.146054 -19.263612 -0.000000 0.177882 0.225462 -0.125033 -191.152555 206.989146 -0.000000 0.432887 0.407872 -0.368285
7.720000 31.593073 -16.053661 -0.000000 0.174163 0.233626 -0.125038 -206.244629 224.569747 -0.000000 0.437155 0.397893 -0.368494
7.725000 32.244190 -11.477655 -0.000000 0.171122 0.242944 -0.124965 -220.463623 242.046596 -0.000000 0.441148 0.387701 -0.368507
7.730000 34.069825 -5.884413 -0.000000 0.167668 0.251958 -0.125731 -234.089322 259.366284 -0.000000 0.444478 0.377367 -0.368706
7.735000 36.950452 0.283419 -0.000000 0.165451 0.261372 -0.125820 -246.820573 277.075250 -0.000000 0.447164 0.366861 -0.368818
7.740000 40.733136 6.533927 -0.000000 0.163818 0.271009 -0.125861 -258.081768 295.973364 -0.000000 0.449409 0.356161 -0.368825
7.745000 45.195630 12.438473 -0.000000 0.162792 0.280787 -0.125775 -267.757717 316.412538 -0.000000 0.451073 0.345351 -0.368785
7.750000 50.023175 17.601096 -0.000000 0.162262 0.290701 -0.125624 -275.563791 338.812115 -0.000000 0.452265 0.334478 -0.368725
7.755000 54.864074 21.646635 -0.000000 0.162335 0.300940 -0.125606 -280.841755 363.767744 -0.000000 0.452743 0.323382 -0.368678
7.760000 59.274150 24.453628 -0.000000 0.163378 0.311094 -0.125824 -284.182551 390.758025 -0.000000 0.452558 0.312444 -0.368687
7.765000 62.901146 25.712782 -0.000000 0.164644 0.321454 -0.125779 -284.561835 420.331484 -0.000000 0.451830 0.301460 -0.368544
7.770000 65.338525 25.308923 -0.000000 0.166580 0.331924 -0.125948 -281.869549 452.101915 -0.000000 0.450409 0.290541 -0.368500
7.775000 66.200698 23.235718 -0.000000 0.168914 0.342293 -0.126174 -276.160052 485.407122 -0.000000 0.448292 0.279718 -0.368468
7.780000 65.213716 19.547970 -0.000000 0.171990 0.352735 -0.126247 -267.018357 519.709910 -0.000000 0.445635 0.269121 -0.368415
7.785000 62.221140 14.425245 -0.000000 0.176006 0.363270 -0.126274 -253.730274 554.430867 -0.000000 0.442412 0.258626 -0.368369
7.790000 57.142947 8.436789 -0.000000 0.179807 0.373662 -0.126550 -237.702049 587.914669 -0.000000 0.438646 0.248406 -0.368275
7.795000 50.133674 2.019715 -0.000000 0.184380 0.383961 -0.126824 -218.307213 619.474659 -0.000000 0.434360 0.238513 -0.368142
7.800000 41.497366 -4.222810 -0.000000 0.189524 0.393959 -0.127184 -196.192973 647.899210 -0.000000 0.429542 0.228989 -0.367999
7.805000 31.678400 -9.800515 -0.000000 0.195262 0.403820 -0.127343 -171.295875 672.317781 -0.000000 0.424226 0.219859 -0.367889
7.810000 21.202045 -14.255059 -0.000000 0.201341 0.413444 -0.127531 -144.222509 691.748527 -0.000000 0.418420 0.210960 -0.367737
7.815000 10.639862 -17.205611 -0.000000 0.207912 0.422736 -0.127873 -115.799291 705.321478 -0.000000 0.412100 0.202563 -0.367683
7.820000 0.576326 -18.367760 -0.000000 0.214380 0.431807 -0.128104 -87.769648 712.254433 -0.000000 0.405383 0.194800 -0.367547
7.825000 -8.553621 -17.591067 -0.000000 0.221536 0.440252 -0.128333 -59.552069 712.336560 -0.000000 0.398274 0.187484 -0.367389
7.830000 -16.423862 -14.820296 -0.000000 0.228990 0.448282 -0.128513 -32.046451 705.329804 -0.000000 0.390838 0.180556 -0.367278
7.835000 -22.862504 -10.147104 -0.000000 0.236937 0.455968 -0.128098 -5.594218 691.286826 -0.000000 0.383051 0.174325 -0.367097
7.840000 -27.809357 -3.883119 -0.000000 0.244711 0.462982 -0.129111 17.879952 670.502301 -0.000000 0.374999 0.168633 -0.366975
7.845000 -31.383717 3.633611 -0.000000 0.252844 0.469349 -0.129317 39.366093 643.533980 -0.000000 0.366634 0.163529 -0.366873
7.850000 -33.786650 11.969321 -0.000000 0.261199 0.475179 -0.129569 58.642255 611.134829 -0.000000 0.357937 0.159064 -0.366745
